<svg width="289" height="288" viewBox="0 0 289 288" fill="none" xmlns="http://www.w3.org/2000/svg">
<path d="M212.351 52.2322C208.014 49.8685 206.024 51.8412 204.466 49.8685C202.907 47.8958 208.802 42.7715 196.989 37.6472C196.989 37.6472 196.201 26.6107 180.035 26.2139C163.868 25.817 168.21 37.2561 163.874 40.0167C159.538 42.7773 158.353 38.4409 154.016 41.2015C149.68 43.962 151.641 49.4602 148.093 50.2653C144.544 51.0705 139.811 46.7168 135.475 49.4774C131.138 52.238 131.138 54.6017 129.148 54.6017C127.158 54.6017 123.23 53.0259 120.867 54.6017C118.503 56.1775 115.742 58.1502 115.742 58.1502H215.508C215.508 58.1502 216.687 54.6017 212.351 52.2322Z" stroke="#263238" stroke-linecap="round" stroke-linejoin="round"/>
<path d="M153.349 50.6104C152.784 50.9293 152.196 51.2061 151.589 51.4386" stroke="#263238" stroke-linecap="round" stroke-linejoin="round"/>
<path d="M174.686 32.2066C173.708 32.6432 172.848 33.3074 172.179 34.1437C171.51 34.9801 171.05 35.9645 170.839 37.0146C170.114 40.6263 168.429 43.0303 166.508 43.2719C164.587 43.5134 157.364 42.7888 156.156 45.4401C155.834 46.215 155.609 47.0261 155.483 47.8556" stroke="#263238" stroke-linecap="round" stroke-linejoin="round"/>
<path d="M114.983 80.5741C112.711 79.3375 111.676 80.367 110.848 79.3375C110.02 78.3081 113.12 75.6165 106.92 72.925C106.92 72.925 106.506 67.1393 98.0343 66.9322C89.5628 66.7252 91.8288 72.7179 89.5571 74.1902C87.2854 75.6625 86.6815 73.3621 84.381 74.8114C82.0806 76.2607 83.1445 79.1535 81.2811 79.5676C79.4178 79.9817 76.939 77.7042 74.6673 79.1535C72.3956 80.6028 72.3668 81.8393 71.3603 81.8393C70.3539 81.8393 68.2605 81.0111 67.0182 81.8393C65.7759 82.6675 64.3324 83.6969 64.3324 83.6969H116.628C116.628 83.6969 117.249 81.8163 114.983 80.5741Z" stroke="#263238" stroke-linecap="round" stroke-linejoin="round"/>
<path d="M84.0475 79.7286C83.7483 79.8919 83.439 80.0359 83.1215 80.16" stroke="#263238" stroke-linecap="round" stroke-linejoin="round"/>
<path d="M95.2335 70.0724C94.7205 70.3008 94.2696 70.6486 93.9184 71.0868C93.5672 71.5251 93.326 72.0409 93.2149 72.5914C92.8353 74.4835 91.9554 75.7488 90.9144 75.8753C89.8734 76.0019 86.1237 75.6223 85.491 77.0256C85.3242 77.4323 85.2046 77.8568 85.1345 78.2908" stroke="#263238" stroke-linecap="round" stroke-linejoin="round"/>
<path d="M182.611 123.835C182.611 123.835 209.717 126.52 223.445 143.32C223.445 143.32 237.961 123.858 264.031 124.254C270.399 116.57 274.454 107.235 275.722 97.3357C276.991 87.4366 275.422 77.3807 271.197 68.3388C266.972 59.2969 260.266 51.6411 251.859 46.2627C243.452 40.8843 233.691 38.0045 223.711 37.9587C213.731 37.9129 203.943 40.7029 195.487 46.0039C187.031 51.3049 180.255 58.8989 175.947 67.9015C171.64 76.9042 169.978 86.9453 171.156 96.8557C172.334 106.766 176.302 116.138 182.6 123.881L182.611 123.835Z" fill="#00AA13"/>
<path opacity="0.5" d="M182.611 123.835C182.611 123.835 209.717 126.52 223.445 143.32C223.445 143.32 237.961 123.858 264.031 124.254C270.399 116.57 274.454 107.235 275.722 97.3357C276.991 87.4366 275.422 77.3807 271.197 68.3388C266.972 59.2969 260.266 51.6411 251.859 46.2627C243.452 40.8843 233.691 38.0045 223.711 37.9587C213.731 37.9129 203.943 40.7029 195.487 46.0039C187.031 51.3049 180.255 58.8989 175.947 67.9015C171.64 76.9042 169.978 86.9453 171.156 96.8557C172.334 106.766 176.302 116.138 182.6 123.881L182.611 123.835Z" fill="white"/>
<path d="M222.559 41.6731L221.639 248.888H226.217L222.559 41.6731Z" fill="#263238"/>
<path d="M223.928 138.201C223.928 138.201 233.078 121.73 249.526 116.697C249.526 116.697 232.14 120.815 223.45 134.998L223.928 138.201Z" fill="#263238"/>
<path d="M223.928 91.5358C223.928 91.5358 233.078 75.0702 249.526 70.0379C249.526 70.0379 232.14 74.1557 223.45 88.3324L223.928 91.5358Z" fill="#263238"/>
<path d="M223.928 114.868C223.928 114.868 233.078 98.397 249.526 93.3647C249.526 93.3647 232.14 97.4826 223.45 111.665L223.928 114.868Z" fill="#263238"/>
<path d="M222.571 103.429C222.571 103.429 213.742 86.9637 197.84 81.9314C197.84 81.9314 214.617 86.0492 223.002 100.232L222.571 103.429Z" fill="#263238"/>
<path d="M222.571 126.302C222.571 126.302 213.742 109.836 197.84 104.804C197.84 104.804 214.617 108.922 223.002 123.104L222.571 126.302Z" fill="#263238"/>
<path d="M97.7871 145.315C97.7871 145.315 120.217 147.541 131.61 161.453C131.61 161.453 143.63 145.35 165.22 145.666C170.496 139.302 173.856 131.57 174.908 123.37C175.96 115.17 174.661 106.84 171.162 99.3504C167.663 91.8604 162.109 85.5184 155.145 81.0629C148.182 76.6073 140.096 74.2216 131.829 74.1836C123.562 74.1455 115.455 76.4566 108.45 80.8478C101.446 85.239 95.8336 91.5296 92.266 98.9871C88.6985 106.445 87.3228 114.762 88.2992 122.971C89.2757 131.18 92.564 138.943 97.7813 145.355L97.7871 145.315Z" fill="#00AA13"/>
<path opacity="0.3" d="M97.7871 145.315C97.7871 145.315 120.217 147.541 131.61 161.453C131.61 161.453 143.63 145.35 165.22 145.666C170.496 139.302 173.856 131.57 174.908 123.37C175.96 115.17 174.661 106.84 171.162 99.3504C167.663 91.8604 162.109 85.5184 155.145 81.0629C148.182 76.6073 140.096 74.2216 131.829 74.1836C123.562 74.1455 115.455 76.4566 108.45 80.8478C101.446 85.239 95.8336 91.5296 92.266 98.9871C88.6985 106.445 87.3228 114.762 88.2992 122.971C89.2757 131.18 92.564 138.943 97.7813 145.355L97.7871 145.315Z" fill="white"/>
<path d="M130.868 77.2672L130.114 248.888H133.899L130.868 77.2672Z" fill="#263238"/>
<path d="M132.007 157.214C132.007 157.214 139.581 143.573 153.223 139.386C153.223 139.386 138.845 142.796 131.627 154.54L132.007 157.214Z" fill="#263238"/>
<path d="M132.007 118.566C132.007 118.566 139.581 104.925 153.223 100.738C153.223 100.738 138.845 104.148 131.627 115.898L132.007 118.566Z" fill="#263238"/>
<path d="M132.007 137.89C132.007 137.89 139.581 124.249 153.223 120.062C153.223 120.062 138.845 123.472 131.627 135.222L132.007 137.89Z" fill="#263238"/>
<path d="M130.885 128.418C130.885 128.418 123.57 114.776 110.411 110.59C110.411 110.59 124.3 114 131.247 125.75L130.885 128.418Z" fill="#263238"/>
<path d="M130.885 147.363C130.885 147.363 123.57 133.721 110.411 129.534C110.411 129.534 124.3 132.944 131.247 144.694L130.885 147.363Z" fill="#263238"/>
<path d="M150.681 248.693C150.6 246.893 150.836 243.476 152.774 238.341C155.811 230.289 161.131 246.392 161.131 246.392C161.131 246.392 161.131 244.477 166.83 238.341C172.529 232.204 177.464 242.942 177.464 242.942C177.464 242.942 174.807 217.257 181.266 219.172C187.724 221.087 186.959 242.942 186.959 242.942C186.959 242.942 191.52 226.838 197.599 226.838C203.678 226.838 205.196 238.341 205.196 238.341C205.196 238.341 206.715 218.022 212.794 217.636C218.873 217.251 225.705 234.51 225.705 234.51C225.705 234.51 223.807 211.506 229.886 210.355C235.965 209.205 238.243 218.787 238.243 218.787C238.243 218.787 243.557 186.965 253.817 190.801C264.077 194.637 255.335 229.909 255.335 229.909C255.335 229.909 265.589 205.369 273.946 211.12C281.543 216.348 271.875 243.752 270.058 248.693H150.681Z" fill="#00AA13"/>
<path d="M273.296 248.641C273.296 248.641 277.747 234.89 275.464 232.589C273.181 230.289 263.329 240.261 263.329 240.261C263.329 240.261 270.547 215.721 259.148 212.656C247.749 209.59 245.857 236.425 245.857 236.425C245.857 236.425 237.501 224.158 235.597 228.759C234.45 231.563 233.808 234.548 233.699 237.576C233.699 237.576 229.524 204.219 220.023 205.754C210.522 207.29 219.264 240.261 219.264 240.261C219.264 240.261 213.95 228.759 207.871 229.909C201.792 231.06 199.491 238.341 199.491 238.341C199.491 238.341 196.834 231.824 194.93 231.824C193.027 231.824 190.755 243.327 190.755 243.327C190.755 243.327 188.455 225.688 184.296 226.459C180.138 227.229 171.379 242.177 171.379 242.177C171.379 242.177 172.903 233.74 168.343 233.36C163.782 232.98 161.125 246.392 161.125 246.392C161.125 246.392 155.046 233.74 151.25 236.04C147.454 238.341 149.266 249.026 149.266 249.026" stroke="#263238" stroke-linecap="round" stroke-linejoin="round"/>
<path d="M252.787 248.451L256.094 232.21" stroke="#263238" stroke-linecap="round" stroke-linejoin="round"/>
<path d="M229.127 248.693L227.223 237.961" stroke="#263238" stroke-linecap="round" stroke-linejoin="round"/>
<path d="M181.087 248.641L183.543 239.876" stroke="#263238" stroke-linecap="round" stroke-linejoin="round"/>
<path d="M210.51 249.078L206.335 241.412" stroke="#263238" stroke-linecap="round" stroke-linejoin="round"/>
<path d="M253.437 242.177L250.395 236.04" stroke="#263238" stroke-linecap="round" stroke-linejoin="round"/>
<path d="M229.127 245.242L231.784 239.876" stroke="#263238" stroke-linecap="round" stroke-linejoin="round"/>
<path d="M208.612 244.862L210.51 241.412" stroke="#263238" stroke-linecap="round" stroke-linejoin="round"/>
<path d="M181.852 245.386L180.506 240.641" stroke="#263238" stroke-linecap="round" stroke-linejoin="round"/>
<path d="M133.352 248.779C133.416 247.381 133.237 244.753 131.817 240.727C129.591 234.476 125.686 246.979 125.686 246.979C125.686 246.979 125.686 245.489 121.511 240.727C117.335 235.965 113.712 244.299 113.712 244.299C113.712 244.299 115.662 224.359 110.923 225.849C106.184 227.339 106.747 244.299 106.747 244.299C106.747 244.299 103.446 231.819 98.9603 231.819C94.4744 231.819 93.3874 240.745 93.3874 240.745C93.3874 240.745 92.2774 224.969 87.8203 224.676C83.3631 224.382 78.3481 237.765 78.3481 237.765C78.3481 237.765 79.7399 219.937 75.2827 219.017C70.8255 218.096 69.1519 225.567 69.1519 225.567C69.1519 225.567 65.2526 200.866 57.7301 203.839C50.2075 206.813 56.6143 234.2 56.6143 234.2C56.6143 234.2 49.0918 215.152 42.9668 219.615C37.3939 223.675 44.4851 244.92 45.8424 248.779H133.352Z" fill="#00AA13"/>
<path d="M43.4441 248.739C43.4441 248.739 40.1832 238.065 41.8511 236.282C43.5189 234.499 50.7654 242.234 50.7654 242.234C50.7654 242.234 45.4743 223.186 53.8308 220.805C62.1873 218.424 63.6078 239.255 63.6078 239.255C63.6078 239.255 69.7386 229.731 71.1303 233.303C71.9731 235.49 72.4435 237.804 72.5221 240.147C72.5221 240.147 75.5875 214.266 82.5522 215.445C89.5169 216.624 83.1273 242.234 83.1273 242.234C83.1273 242.234 87.0266 233.303 91.4838 234.183C95.9409 235.062 97.6145 240.727 97.6145 240.727C97.6145 240.727 99.5642 235.666 100.956 235.666C102.348 235.666 104.021 244.598 104.021 244.598C104.021 244.598 105.695 230.904 108.76 231.502C111.826 232.101 118.233 243.701 118.233 243.701C118.233 243.701 117.117 237.156 120.458 236.857C123.8 236.558 125.749 246.979 125.749 246.979C125.749 246.979 130.207 237.156 132.996 238.927C135.785 240.699 134.411 249.026 134.411 249.026" stroke="#263238" stroke-linecap="round" stroke-linejoin="round"/>
<path d="M58.4835 248.589L56.0565 235.983" stroke="#263238" stroke-linecap="round" stroke-linejoin="round"/>
<path d="M75.8405 248.779L77.2323 240.446" stroke="#263238" stroke-linecap="round" stroke-linejoin="round"/>
<path d="M111.072 248.739L109.266 241.935" stroke="#263238" stroke-linecap="round" stroke-linejoin="round"/>
<path d="M89.4881 249.078L92.5535 243.126" stroke="#263238" stroke-linecap="round" stroke-linejoin="round"/>
<path d="M58.0118 243.718L60.2376 238.956" stroke="#263238" stroke-linecap="round" stroke-linejoin="round"/>
<path d="M75.8405 246.099L73.8909 241.935" stroke="#263238" stroke-linecap="round" stroke-linejoin="round"/>
<path d="M90.8799 245.806L89.4881 243.126" stroke="#263238" stroke-linecap="round" stroke-linejoin="round"/>
<path d="M110.509 246.208L111.498 242.527" stroke="#263238" stroke-linecap="round" stroke-linejoin="round"/>
<path d="M10.277 248.888H284.609" stroke="#263238" stroke-linecap="round" stroke-linejoin="round"/>
<path d="M219.781 201.05L216.975 205.265L193.912 215.29C193.912 215.29 190.703 215.894 190.703 216.894C190.703 217.895 190.099 220.707 190.703 221.11C191.307 221.513 195.304 220.104 195.304 220.104C195.304 220.104 194.102 221.507 195.304 221.909C196.506 222.312 197.708 220.506 197.708 220.506C198.886 219.764 200.024 218.962 201.119 218.102C201.684 217.36 202.155 216.55 202.522 215.692L223.801 210.281L228.212 203.661C228.212 203.661 219.183 202.654 219.781 201.05Z" fill="#B5B5B5" stroke="#263238" stroke-linecap="round" stroke-linejoin="round"/>
<path d="M221.386 191.595L218.775 200.164L225.601 204.23L228.356 197.547L221.386 191.595Z" fill="white" stroke="#263238" stroke-linecap="round" stroke-linejoin="round"/>
<path d="M219.045 197.404L227.327 202.344L225.872 204.955L218.033 200.889C218.087 199.663 218.434 198.468 219.045 197.404Z" fill="white" stroke="#263238" stroke-linecap="round" stroke-linejoin="round"/>
<path d="M202.654 242.7C202.654 242.7 196.845 245.604 195.247 246.91C193.648 248.215 193.36 248.06 193.792 249.09H212.385L211.948 242.407L202.654 242.7Z" fill="white" stroke="#263238" stroke-linecap="round" stroke-linejoin="round"/>
<path d="M212.316 248.089H193.792C193.539 248.359 193.567 248.578 193.792 249.107H212.385L212.316 248.089Z" fill="white" stroke="#263238" stroke-linecap="round" stroke-linejoin="round"/>
<path d="M227.632 208.153C227.632 208.153 220.517 205.248 214.709 204.667C208.9 204.087 196.845 204.374 196.265 206.968C195.684 209.562 204.834 238.024 204.834 238.024C204.834 238.024 203.235 239.042 203.108 239.75C202.982 240.457 202.677 242.625 202.677 242.625L211.971 244.075C211.971 244.075 212.259 241.17 212.259 238.415C212.259 235.661 209.067 218.66 209.067 218.66L227.798 224.618L220.828 239.428C220.828 239.428 218.654 243.787 221.121 245.967C223.588 248.146 227.655 247.692 227.655 247.692L260.77 248.129L260.195 242.752C260.195 242.752 255.404 242.027 254.53 242.027C253.656 242.027 236.954 237.817 236.954 237.817C236.954 237.817 250.32 223.871 251.769 221.547C252.632 220.261 253.219 218.81 253.494 217.286C253.769 215.762 253.726 214.197 253.368 212.69C252.494 209.205 251.913 208.475 251.913 208.475C251.913 208.475 241.722 213.369 236.494 212.219C233.292 211.486 230.275 210.102 227.632 208.153Z" fill="#263238" stroke="#263238" stroke-linecap="round" stroke-linejoin="round"/>
<path d="M203.96 163.564C203.96 163.564 204.978 166.905 204.978 167.342C204.978 167.779 204.247 169.953 204.834 170.678C205.42 171.403 207.134 171.552 207.134 171.552C207.134 171.552 209.745 174.6 210.907 175.762C212.069 176.924 213.374 177.361 214.829 176.636C216.284 175.911 217.59 174.019 217.59 174.019L220.351 176.78L226.74 169.372L224.44 166.468C224.44 166.468 225.015 163.127 222.841 158.773C220.667 154.419 213.11 153.252 208.17 154.126C203.229 155 202.073 157.899 202.073 158.48C202.073 159.061 203.96 163.564 203.96 163.564Z" fill="white" stroke="#263238" stroke-linecap="round" stroke-linejoin="round"/>
<path d="M206.576 150.347C206.576 150.347 203.523 148.047 201.492 149.042C199.462 150.037 200.342 150.928 200.037 152.671C199.733 154.414 194.666 154.557 194.666 157.462C194.666 160.366 198.295 161.384 199.019 161.528C199.744 161.672 199.169 164.869 201.32 164.869C203.471 164.869 203.937 163.564 203.937 163.564C203.937 163.564 202.338 158.917 204.08 158.192C205.823 157.467 209.745 156.012 209.165 158.767C208.584 161.522 210.62 162.396 211.781 162.109C212.943 161.821 214.392 161.959 214.657 162.54C214.921 163.121 216.382 164.139 216.382 162.689C216.382 161.24 217.107 159.929 218.412 159.929C219.718 159.929 220.713 162.109 220.592 163.851C220.494 164.901 220.095 165.899 219.442 166.727L224.382 166.434C224.382 166.434 225.688 159.9 224.526 155.253C223.364 150.606 217.895 148.024 214.559 147.587C211.223 147.15 207.008 149.042 206.576 150.347Z" fill="#263238" stroke="#263238" stroke-linecap="round" stroke-linejoin="round"/>
<path d="M207.825 166.157C208.187 166.733 208.273 167.308 208.026 167.451C207.779 167.595 207.272 167.308 206.916 166.756C206.559 166.203 206.461 165.605 206.715 165.462C206.968 165.318 207.462 165.634 207.825 166.157Z" fill="#263238"/>
<path d="M209.711 172.679C210.405 172.541 211.034 172.178 211.5 171.645C211.966 171.113 212.243 170.441 212.287 169.735" stroke="#263238" stroke-linecap="round" stroke-linejoin="round"/>
<path d="M205.288 164.944C205.288 164.944 205.53 163.592 207.129 164.208" stroke="#263238" stroke-linecap="round" stroke-linejoin="round"/>
<path d="M220.661 179.247C220.661 179.247 219.511 188.834 220.805 191.739C222.099 194.643 226.763 206.26 226.763 206.26C226.763 206.26 225.745 213.369 228.649 215.267C231.554 217.165 242.59 217.447 246.806 214.83C251.022 212.213 252.758 210.183 252.758 208.296C252.758 206.41 249.998 198.128 245.644 189.852C242.456 183.791 238.055 178.451 232.716 174.163C229.667 171.696 228.506 170.534 227.925 170.534C227.344 170.534 220.374 176.492 220.661 179.247Z" fill="white" stroke="#263238" stroke-linecap="round" stroke-linejoin="round"/>
<path d="M226.763 168.648L218.918 177.505L220.517 182.301L229.374 170.827L226.763 168.648Z" fill="white" stroke="#263238" stroke-linecap="round" stroke-linejoin="round"/>
<path d="M226.907 201.033C226.907 201.033 210.93 210.183 208.9 210.913C206.87 211.644 200.331 211.638 198.439 211.488C198.207 211.447 197.968 211.457 197.741 211.518C197.513 211.579 197.302 211.69 197.121 211.842C196.941 211.994 196.797 212.184 196.699 212.398C196.6 212.612 196.55 212.846 196.552 213.081L196.265 218.603C196.265 218.603 197.858 219.04 198.565 218.603C199.273 218.165 200.014 216.567 200.014 216.567C200.014 216.567 202.631 216.86 203.5 216.279C204.07 215.891 204.605 215.454 205.098 214.974C207.782 214.751 210.45 214.367 213.087 213.823C215.991 213.093 229.351 208.739 231.387 208.302C233.423 207.865 234.148 206.703 234.291 206.002C234.435 205.3 226.907 201.033 226.907 201.033Z" fill="white" stroke="#263238" stroke-linecap="round" stroke-linejoin="round"/>
<path d="M208.693 210.971C206.473 211.632 200.273 211.632 198.439 211.494C198.207 211.453 197.968 211.463 197.741 211.524C197.513 211.585 197.302 211.696 197.121 211.848C196.941 212 196.797 212.19 196.699 212.404C196.6 212.618 196.55 212.851 196.552 213.087L196.265 218.608C196.265 218.608 197.858 219.045 198.565 218.608C199.273 218.171 200.014 216.572 200.014 216.572C200.014 216.572 202.631 216.866 203.5 216.285C204.07 215.897 204.605 215.46 205.098 214.979C205.098 214.979 207.537 214.766 210.004 214.404L208.693 210.971Z" fill="#00AA13" stroke="#263238" stroke-linecap="round" stroke-linejoin="round"/>
<path d="M228.069 179.397C228.069 179.397 225.601 182.151 225.889 184.187C226.176 186.223 226.907 201.033 226.907 201.033L235.183 204.374L237.483 192.613C237.483 192.613 239.375 189.559 239.082 186.655" fill="white"/>
<path d="M228.069 179.397C228.069 179.397 225.601 182.151 225.889 184.187C226.176 186.223 226.907 201.033 226.907 201.033L235.183 204.374L237.483 192.613C237.483 192.613 239.375 189.559 239.082 186.655" stroke="#263238" stroke-linecap="round" stroke-linejoin="round"/>
<path d="M226.182 201.763L234.602 206.841C234.602 206.841 235.752 206.841 235.913 204.955C236.074 203.069 236.925 202.775 236.201 201.763C235.476 200.751 227.775 197.547 227.051 197.547C226.326 197.547 225.601 199.29 226.182 201.763Z" fill="white" stroke="#263238" stroke-linecap="round" stroke-linejoin="round"/>
<path d="M260.166 242.861C260.166 242.861 264.52 239.088 265.25 239.232C265.98 239.376 271.783 244.897 271.783 244.897C271.783 244.897 277.155 247.801 277.155 248.238C277.155 248.675 276.287 248.814 276.287 248.814L260.758 248.238L260.166 242.861Z" fill="white" stroke="#263238" stroke-linecap="round" stroke-linejoin="round"/>
<path d="M277.132 248.238C277.132 247.801 271.76 244.897 271.76 244.897C271.76 244.897 265.952 239.376 265.227 239.232C264.968 239.18 264.244 239.629 263.427 240.227L270.455 245.184L275.574 248.79L276.264 248.819C276.264 248.819 277.132 248.67 277.132 248.238Z" fill="white" stroke="#263238" stroke-linecap="round" stroke-linejoin="round"/>
<path d="M227.775 224.71L226.326 218.608" stroke="#999999" stroke-linecap="round" stroke-linejoin="round"/>
<path d="M177.245 200.532C175.52 199.555 172.984 198.232 172.984 198.232C172.984 198.232 169.568 189.605 166.888 185.579C164.208 181.553 162.62 181.065 159.693 180.823C156.765 180.581 147.995 182.893 147.615 183.503C147.615 183.503 139.449 187.282 137.378 189.967C135.308 192.653 136.032 213.49 136.032 213.49C136.032 213.49 127.268 219.425 124.956 226.022C123.483 230.203 125.197 237.11 133.122 239.186C135.766 239.894 138.542 239.955 141.214 239.364C143.273 241.101 145.553 242.557 147.995 243.695C156.162 247.594 161.522 248.325 166.519 248.572C171.517 248.819 176.636 247.232 177.614 246.271C178.591 245.311 180.541 241.515 175.543 236.034C171.235 231.301 158.238 226.033 154.73 224.67C155.078 222.623 155.271 220.552 155.305 218.476C155.305 218.476 162.862 209.849 163.356 207.871C163.851 205.892 165.082 197.875 165.082 197.875C165.082 197.875 169.228 205.438 170.448 206.531C171.667 207.623 178.735 206.778 179.465 206.778C180.196 206.778 180.564 203.609 180.564 203.609C179.637 202.406 178.516 201.366 177.245 200.532Z" fill="white" stroke="#263238" stroke-linecap="round" stroke-linejoin="round"/>
<path d="M175.543 236.006C171.235 231.272 158.238 226.004 154.73 224.641C154.839 224.003 154.931 223.382 155 222.795C151.72 223.52 148.315 223.451 145.068 222.594C135.802 220.155 133.853 215.158 133.853 215.158H133.784C131.017 217.4 126.514 221.559 124.956 226.004C123.483 230.185 125.197 237.093 133.122 239.169C135.766 239.876 138.542 239.937 141.214 239.347C143.273 241.084 145.553 242.54 147.995 243.678C156.162 247.577 161.522 248.307 166.519 248.555C171.517 248.802 176.636 247.215 177.614 246.254C178.591 245.294 180.541 241.486 175.543 236.006Z" fill="#696969" stroke="#263238" stroke-linecap="round" stroke-linejoin="round"/>
<path d="M129.827 226.861C129.827 226.861 134.215 221.495 139.949 223.692C159.98 231.37 165.059 239.905 166.404 243.315C167.75 246.726 167.256 248.56 166.163 249.291C165.07 250.021 153.608 247.341 148.121 245.392C142.635 243.442 135.319 244.414 129.102 239.175C122.885 233.935 123.863 228.822 125.813 224.423" fill="#696969"/>
<path d="M129.827 226.861C129.827 226.861 134.215 221.495 139.949 223.692C159.98 231.37 165.059 239.905 166.404 243.315C167.75 246.726 167.256 248.56 166.163 249.291C165.07 250.021 153.608 247.341 148.121 245.392C142.635 243.442 135.319 244.414 129.102 239.175C122.885 233.935 123.863 228.822 125.813 224.423" stroke="#263238" stroke-linecap="round" stroke-linejoin="round"/>
<path d="M180.541 203.592C179.619 202.401 178.505 201.371 177.245 200.544C175.52 199.566 172.984 198.243 172.984 198.243C172.984 198.243 172 195.759 170.683 192.831C169.205 194.062 166.784 196.426 165.852 199.296C167.118 201.539 169.545 205.737 170.453 206.531C171.667 207.629 178.741 206.778 179.471 206.778C180.201 206.778 180.541 203.592 180.541 203.592Z" fill="white" stroke="#263238" stroke-linecap="round" stroke-linejoin="round"/>
<path d="M165.059 197.847L164.938 191.267" stroke="#263238" stroke-linecap="round" stroke-linejoin="round"/>
<path d="M184.498 214.398C183.128 214.889 181.814 215.521 180.575 216.285C179.425 217.153 179.27 217.884 179.27 219.189C179.27 220.495 176.653 222.237 177.964 222.237C179.276 222.237 180.265 221.8 181.45 219.626C182.634 217.452 184.061 216.808 184.061 216.808C184.151 217.86 184.344 218.9 184.636 219.914C185.042 220.78 185.095 221.77 184.785 222.674C184.492 223.825 185.935 223.549 186.378 220.374C186.613 218.348 186.313 216.296 185.51 214.421L184.498 214.398Z" fill="white" stroke="#263238" stroke-linecap="round" stroke-linejoin="round"/>
<path d="M184.21 210.902C184.21 210.902 184.641 213.352 184.498 213.91C184.354 214.467 182.318 216.026 181.593 217.36C181.304 217.903 181.129 218.5 181.079 219.113C181.03 219.727 181.107 220.344 181.306 220.926C181.593 221.817 182.456 224.71 182.899 223.934C183.342 223.157 183.474 222.26 183.474 220.592C183.474 218.925 183.186 217.47 184.049 216.802L184.923 216.135C185.345 217.108 185.685 218.114 185.941 219.143C186.516 221.26 185.504 223.042 185.792 223.376C186.079 223.71 187.247 223.485 187.39 222.594C187.534 221.702 188.115 220.702 188.115 218.919C188.106 217.831 187.78 216.77 187.178 215.865C186.906 215.114 186.687 214.346 186.522 213.564C186.263 212.219 185.372 209.677 184.21 210.902Z" fill="white" stroke="#263238" stroke-linecap="round" stroke-linejoin="round"/>
<path d="M188.708 206.991C189.339 208.057 189.915 209.155 190.433 210.281C190.795 211.258 191.043 212.357 190.433 212.581C189.823 212.805 189.334 211.12 188.966 210.39C188.598 209.659 187.368 206.502 188.708 206.991Z" fill="#00AA13" stroke="#263238" stroke-linecap="round" stroke-linejoin="round"/>
<path d="M188.708 206.991C187.977 205.409 183.831 202.965 182.732 202.361C181.967 201.93 179.523 201.867 178.131 201.861C177.798 201.809 177.458 201.809 177.125 201.861C177.125 201.861 175.175 203.322 175.296 204.909C175.341 205.362 175.535 205.786 175.847 206.117C176.159 206.448 176.572 206.666 177.021 206.738H177.596C177.503 207.33 177.606 207.936 177.89 208.463C178.862 209.964 179.454 211.68 179.615 213.461C179.615 215.048 181.444 214.439 181.685 213.219C181.927 212 181.323 209.809 181.323 209.32C181.323 208.831 182.295 207.491 182.295 207.491C182.295 207.491 184.981 210.292 185.343 210.902C185.705 211.511 185.832 214.68 186.81 214.928C187.787 215.175 187.782 213.202 187.782 213.202C187.984 213.219 188.187 213.193 188.379 213.128C188.57 213.062 188.746 212.957 188.895 212.82C189.045 212.682 189.164 212.516 189.245 212.33C189.327 212.145 189.369 211.944 189.369 211.741C189.571 210.127 189.342 208.489 188.708 206.991Z" fill="#00AA13" stroke="#263238" stroke-linecap="round" stroke-linejoin="round"/>
<path d="M186.027 207.359C186.027 207.359 187.851 208.452 187.851 209.55C187.851 210.649 187.73 213.208 187.73 213.208" stroke="#263238" stroke-linecap="round" stroke-linejoin="round"/>
<path d="M166.767 246.151C166.767 247.876 167.739 248.1 163.96 250.418C160.182 252.736 154.454 251.148 148.846 249.929C143.239 248.71 136.533 247.732 133.974 247.732C131.414 247.732 125.301 248.681 123 248.681C120.7 248.681 116.91 248.44 117.399 247.22C117.887 246.001 124.099 244.046 124.588 243.563C125.076 243.08 124.956 242.096 126.175 240.267C126.451 239.766 126.897 239.38 127.433 239.179C127.969 238.979 128.559 238.977 129.097 239.174C131.25 241.147 133.925 242.459 136.803 242.953C141.404 243.683 149.841 244.046 153.136 244.046C156.432 244.046 160.573 245.512 160.935 245.512" fill="#696969"/>
<path d="M166.767 246.151C166.767 247.876 167.739 248.1 163.96 250.418C160.182 252.736 154.454 251.148 148.846 249.929C143.239 248.71 136.533 247.732 133.974 247.732C131.414 247.732 125.301 248.681 123 248.681C120.7 248.681 116.91 248.44 117.399 247.22C117.887 246.001 124.099 244.046 124.588 243.563C125.076 243.08 124.956 242.096 126.175 240.267C126.451 239.766 126.897 239.38 127.433 239.179C127.969 238.979 128.559 238.977 129.097 239.174C131.25 241.147 133.925 242.459 136.803 242.953C141.404 243.683 149.841 244.046 153.136 244.046C156.432 244.046 160.573 245.512 160.935 245.512" stroke="#263238" stroke-linecap="round" stroke-linejoin="round"/>
<path d="M136.803 242.953C133.933 242.455 131.266 241.143 129.12 239.174C128.582 238.977 127.992 238.979 127.456 239.179C126.92 239.38 126.474 239.766 126.198 240.267C124.979 242.096 125.099 243.074 124.611 243.563C124.122 244.051 117.905 246.001 117.422 247.22C116.939 248.44 120.7 248.681 123 248.681C125.301 248.681 131.414 247.703 133.974 247.703C135.303 247.74 136.63 247.85 137.948 248.031C137.948 247.922 137.902 247.813 137.873 247.703C137.516 246.185 138.54 244.201 139.109 243.258C138.264 243.166 137.476 243.062 136.803 242.953Z" fill="white" stroke="#263238" stroke-linecap="round" stroke-linejoin="round"/>
<path d="M129.096 239.174C128.559 238.977 127.969 238.979 127.433 239.179C126.897 239.38 126.451 239.766 126.175 240.267C124.956 242.096 125.076 243.074 124.588 243.563C124.099 244.051 117.882 246.001 117.399 247.22C117.22 247.652 117.588 247.957 118.233 248.175C119.665 246.64 124.214 245.363 125.485 244.437C126.756 243.511 125.807 243.195 127.147 241.366C127.481 240.939 127.896 240.582 128.369 240.318C128.842 240.053 129.363 239.885 129.902 239.824C129.373 239.445 129.096 239.174 129.096 239.174Z" stroke="#263238" stroke-linecap="round" stroke-linejoin="round"/>
<path d="M140.311 187.489C140.311 187.489 135.314 189.438 134.342 193.458C133.37 197.478 135.193 222.473 135.193 223.083C135.193 223.692 138.482 224.302 143.607 224.808C148.731 225.314 158.232 225.418 158.232 225.418C158.232 225.418 162.379 227.241 163.23 227.241C164.081 227.241 165.91 226.148 165.91 226.148C165.91 226.148 165.668 227.241 166.64 226.999C167.612 226.758 170.908 224.072 170.908 223.589C170.908 223.106 168.716 220.782 167.376 220.541C166.036 220.299 160.061 222.611 159.451 222.611C158.842 222.611 148.236 220.311 146.287 219.442C144.736 218.813 143.148 218.283 141.531 217.855L142.387 196.771" fill="white"/>
<path d="M140.311 187.489C140.311 187.489 135.314 189.438 134.342 193.458C133.37 197.478 135.193 222.473 135.193 223.083C135.193 223.692 138.482 224.302 143.607 224.808C148.731 225.314 158.232 225.418 158.232 225.418C158.232 225.418 162.379 227.241 163.23 227.241C164.081 227.241 165.91 226.148 165.91 226.148C165.91 226.148 165.668 227.241 166.64 226.999C167.612 226.758 170.908 224.072 170.908 223.589C170.908 223.106 168.716 220.782 167.376 220.541C166.036 220.299 160.061 222.611 159.451 222.611C158.842 222.611 148.236 220.311 146.287 219.442C144.736 218.813 143.148 218.283 141.531 217.855L142.387 196.771" stroke="#263238" stroke-linecap="round" stroke-linejoin="round"/>
<path d="M167.376 220.523C166.031 220.276 160.061 222.594 159.451 222.594C158.842 222.594 148.236 220.293 146.287 219.425C144.736 218.796 143.148 218.266 141.531 217.838L141.996 206.283L134.238 205.984C134.566 213.973 135.193 222.726 135.193 223.083C135.193 223.692 138.482 224.302 143.607 224.808C148.731 225.314 158.232 225.418 158.232 225.418C158.232 225.418 162.379 227.241 163.23 227.241C164.081 227.241 165.91 226.148 165.91 226.148C165.91 226.148 165.668 227.241 166.64 226.999C167.612 226.758 170.908 224.072 170.908 223.589C170.908 223.106 168.716 220.765 167.376 220.523Z" fill="white" stroke="#263238" stroke-linecap="round" stroke-linejoin="round"/>
<path d="M170.908 223.572C170.908 223.083 168.716 220.765 167.376 220.523C166.036 220.282 160.061 222.594 159.451 222.594C159.261 222.594 158.1 222.37 156.53 222.019C155.955 222.594 155.408 223.583 155.592 225.331L158.232 225.383C158.232 225.383 162.379 227.206 163.23 227.206C164.081 227.206 165.91 226.114 165.91 226.114C165.91 226.114 165.668 227.206 166.64 226.965C167.612 226.723 170.908 224.055 170.908 223.572Z" fill="#00AA13" stroke="#263238" stroke-linecap="round" stroke-linejoin="round"/>
<path d="M144.337 163.592C144.337 163.592 139.702 159.94 137.873 161.16C136.044 162.379 128.366 172.127 127.636 174.807C126.905 177.487 130.925 178.103 129.465 180.294C128.004 182.485 125.197 183.342 126.296 186.045C127.394 188.748 131.782 188.972 132.754 189.582C133.726 190.192 135.314 192.509 138.851 191.532C142.388 190.554 141.651 186.045 144.337 185.435C147.023 184.826 146.776 181.174 145.556 178.246C144.337 175.319 143.607 171.299 145.068 169.47C146.528 167.641 144.337 163.592 144.337 163.592Z" fill="#263238" stroke="#263238" stroke-linecap="round" stroke-linejoin="round"/>
<path d="M147.04 161.085C147.04 161.085 143.302 161.298 141.536 165.968C139.771 170.638 141.536 177.597 142.054 178.741C142.572 179.886 145.275 181.042 146.937 180.087C148.599 179.132 150.882 175.52 152.538 174.583C154.195 173.645 157.525 169.706 157.525 169.706L159.911 172.714C159.911 172.714 161.47 172.507 162.091 169.499C162.712 166.491 160.435 163.27 156.696 161.401C152.958 159.532 148.909 159.636 147.04 161.085Z" fill="#263238" stroke="#263238" stroke-linecap="round" stroke-linejoin="round"/>
<path d="M146.528 182.123C146.528 182.123 146.649 185.781 147.506 187.368C148.363 188.955 150.554 195.995 153.355 196.265C156.156 196.535 156.035 186.39 156.035 186.39C156.035 186.39 152.745 186.511 150.796 184.44C148.846 182.37 146.776 181.162 146.528 182.123Z" stroke="#263238" stroke-linecap="round" stroke-linejoin="round"/>
<path d="M157.939 166.692C157.939 166.692 153.579 171.782 150.152 173.962C146.724 176.142 145.171 176.452 145.171 176.452C145.171 176.452 146.517 176.245 145.585 177.182C144.653 178.12 144.435 178.333 143.923 177.493C143.411 176.653 141.329 175.831 140.909 177.907C140.731 178.774 140.864 179.676 141.285 180.454C141.705 181.232 142.387 181.838 143.21 182.163C144.096 182.536 145.08 182.609 146.011 182.37C146.011 182.37 146.321 185.901 150.474 187.977C154.626 190.054 158.474 187.149 159.612 184.97C160.751 182.79 160.343 172.927 160.13 171.265C159.917 169.602 157.939 166.692 157.939 166.692Z" fill="white" stroke="#263238" stroke-linecap="round" stroke-linejoin="round"/>
<path d="M156.892 176.515C156.892 176.515 156.645 178.465 157.013 178.586C157.381 178.707 158.738 179.195 158.232 179.932C157.726 180.668 157.013 181.151 156.162 180.783" stroke="#263238" stroke-linecap="round" stroke-linejoin="round"/>
<path d="M151.405 182.491C151.405 182.491 152.383 184.072 156.162 183.221" stroke="#263238" stroke-linecap="round" stroke-linejoin="round"/>
<path d="M153.602 177.309C153.602 177.884 153.326 178.344 152.993 178.344C152.659 178.344 152.383 177.878 152.383 177.309C152.383 176.74 152.653 176.274 152.993 176.274C153.332 176.274 153.602 176.734 153.602 177.309Z" fill="#263238"/>
<path d="M158.842 176.699C158.842 177.275 158.571 177.735 158.232 177.735C157.893 177.735 157.622 177.269 157.622 176.699C157.622 176.13 157.893 175.664 158.232 175.664C158.571 175.664 158.842 176.124 158.842 176.699Z" fill="#263238"/>
<path d="M151.181 175.411C151.514 175.002 151.946 174.687 152.437 174.495C152.928 174.304 153.46 174.243 153.982 174.318" stroke="#263238" stroke-linecap="round" stroke-linejoin="round"/>
<path d="M157.013 174.198C157.013 174.198 157.743 172.616 159.313 173.715" stroke="#263238" stroke-linecap="round" stroke-linejoin="round"/>
<path d="M197.57 217.009C197.57 217.009 185.803 220.788 182.617 221.95C179.431 223.111 168.964 223.255 168.239 224.417C167.514 225.579 162.304 232.147 161.286 235.919C160.268 239.692 161.619 249.912 162.591 250.55C166.496 253.133 176.768 252.339 181.116 252.172C189.07 251.879 196.771 254.749 201.245 246.651C202.694 244.034 200.601 234.873 200.313 231.824C200.026 228.776 199.002 223.692 198.858 222.962C198.715 222.231 199.75 217.59 197.57 217.009Z" fill="white" stroke="#263238" stroke-linecap="round" stroke-linejoin="round"/>
<path d="M182.853 231.773C189.076 229.576 194.384 223.146 196.034 222.065C197.685 220.984 198.588 218.614 198.588 218.614C195.981 220.37 193.152 221.771 190.174 222.778" stroke="#263238" stroke-linecap="round" stroke-linejoin="round"/>
<path d="M198.416 219.661C197.239 223.294 195.159 226.569 192.371 229.179" stroke="#263238" stroke-linecap="round" stroke-linejoin="round"/>
<path d="M170.586 224.785C170.586 224.785 172.414 225.699 178.637 225.699" stroke="#263238" stroke-linecap="round" stroke-linejoin="round"/>
<path d="M169.849 224.969C169.849 224.969 171.316 231.376 179.557 233.941" stroke="#263238" stroke-linecap="round" stroke-linejoin="round"/>
<path d="M168.389 227.172C169.638 229.376 171.318 231.306 173.329 232.848" stroke="#263238" stroke-linecap="round" stroke-linejoin="round"/>
<path d="M52.8013 196.558C52.8013 196.558 56.0507 205.823 56.0507 209.562C56.0507 213.3 58.6503 233.78 58.9723 236.057C59.1881 237.472 59.6289 238.843 60.2778 240.118C62.4978 242.169 65.0193 243.868 67.7544 245.156C72.4646 247.456 72.3036 246.783 71.4926 247.755C70.6817 248.727 63.1994 248.906 59.789 248.572C56.3785 248.238 52.9623 249.383 52.8013 247.922C52.6403 246.461 52.6345 240.607 52.6345 238.007C52.6345 235.407 45.8079 222.571 44.9969 218.499C44.186 214.427 44.5081 208.101 44.5081 208.101L40.4478 198.324L52.8013 196.558Z" fill="white" stroke="#263238" stroke-linecap="round" stroke-linejoin="round"/>
<path d="M59.1621 241.745V244.046L52.6747 242.798C52.6747 244.995 52.7323 247.14 52.8243 247.974C52.9853 249.435 56.3958 248.296 59.812 248.624C63.2282 248.952 70.699 248.785 71.5156 247.807C72.3323 246.829 72.4876 247.485 67.7774 245.208C65.0436 243.918 62.5225 242.219 60.3008 240.169C60.3008 240.169 59.1621 240.279 59.1621 241.745Z" fill="#263238" stroke="#263238" stroke-linecap="round" stroke-linejoin="round"/>
<path d="M39.4701 197.536C39.4701 197.536 39.9417 207.721 38.3198 211.839C30.1934 232.641 29.8713 240.446 29.8713 240.446C29.8713 240.446 38.0093 246.617 39.7979 247.301C41.5865 247.985 42.5585 248.273 41.4197 249.084C40.281 249.895 30.0439 249.734 28.2553 249.734C26.4666 249.734 22.0785 248.434 21.5954 247.623C21.1123 246.812 22.7456 240.308 22.7456 240.308C22.7456 240.308 23.5623 224.055 23.5623 220.316C23.5623 216.578 27.6226 209.268 27.6226 207.963C27.6226 206.657 26.8117 196.915 26.8117 196.915C26.8117 196.915 36.5485 199.325 39.4701 197.536Z" fill="white" stroke="#263238" stroke-linecap="round" stroke-linejoin="round"/>
<path d="M41.4197 249.055C42.5699 248.244 41.5865 247.905 39.7979 247.272C38.0092 246.64 29.8828 240.446 29.8828 240.446C29.8828 240.446 29.0719 240.768 29.0719 242.067C29.1085 242.752 28.9382 243.431 28.5831 244.017C28.5831 244.017 25.9835 243.534 22.8951 242.867C22.6363 242.815 22.4005 242.763 22.1705 242.706C21.7506 244.644 21.3078 247.105 21.5954 247.583C22.0785 248.394 26.4666 249.693 28.2552 249.693C30.0439 249.693 40.2867 249.872 41.4197 249.055Z" fill="#263238" stroke="#263238" stroke-linecap="round" stroke-linejoin="round"/>
<path d="M52.9623 148.611L58.9723 157.387L83.8404 153.815V158.526C83.8404 158.526 59.1621 165.352 58.1614 164.541C57.1607 163.73 48.8962 159.825 48.8962 159.825L52.9623 148.611Z" fill="#B5B5B5" stroke="#263238" stroke-linecap="round" stroke-linejoin="round"/>
<path d="M30.6937 137.074C30.6937 137.074 28.9051 147.478 28.9051 151.699V166.652C28.9051 166.652 23.729 174.945 22.8951 182.255C22.0612 189.565 21.9174 197.697 21.9174 197.697C21.9174 197.697 29.7218 201.113 36.0596 200.624C39.8308 200.337 43.5778 199.791 47.2744 198.991L56.2117 196.88L49.5461 166.652C49.5461 166.652 52.8013 158.025 53.2844 157.554C53.7675 157.082 55.5849 151.227 54.912 146.822C54.2391 142.417 51.8236 133.335 46.7855 130.897C41.7475 128.458 32.9712 131.386 30.6937 137.074Z" fill="#5E5E5E" stroke="#263238" stroke-linecap="round" stroke-linejoin="round"/>
<path d="M38.1013 166.784C37.7489 169.435 36.634 171.927 34.8921 173.956C32.0165 177.275 29.647 177.913 29.647 177.913C29.647 177.913 28.2552 191.422 28.7901 196.691" stroke="#263238" stroke-linecap="round" stroke-linejoin="round"/>
<path d="M39.6081 167.233C39.3194 169.725 38.5164 172.13 37.2501 174.295C35.2142 177.614 30.9238 178.793 30.9238 178.793" stroke="#263238" stroke-linecap="round" stroke-linejoin="round"/>
<path d="M49.7129 135.935C48.8617 133.031 46.3945 131.116 45.1867 130.328C41.4312 129.402 36.4852 130.713 33.3105 133.502C33.253 133.847 33.2128 134.158 33.1323 134.474C32.9712 135.124 30.5327 149.261 30.5327 149.261C30.5327 149.261 31.1078 149.376 32.005 149.537C31.1078 154.109 32.1143 161.735 32.1143 161.735C32.1143 161.735 36.9165 163.282 40.6318 163.127C44.3471 162.971 48.6835 160.826 48.6835 160.826C48.6835 159.521 49.7704 152.97 50.2823 149.956H50.5238C50.5238 149.956 50.8459 139.834 49.7129 135.935Z" fill="white" stroke="#263238" stroke-linecap="round" stroke-linejoin="round"/>
<path d="M42.9553 148.421C42.9553 148.421 37.2041 154.172 34.2825 155.075Z" fill="white"/>
<path d="M42.9553 148.421C42.9553 148.421 37.2041 154.172 34.2825 155.075" stroke="#263238" stroke-linecap="round" stroke-linejoin="round"/>
<path d="M42.9552 151.36C42.9552 151.36 39.7001 154.304 37.0718 156.472Z" fill="white"/>
<path d="M42.9552 151.36C42.9552 151.36 39.7001 154.304 37.0718 156.472" stroke="#263238" stroke-linecap="round" stroke-linejoin="round"/>
<path d="M55.4813 193.568C52.6052 195.102 49.3957 195.906 46.1357 195.908C46.1357 195.908 41.2587 198.025 33.6211 197.697C29.5465 197.476 25.5791 196.31 22.0324 194.292C21.9462 196.363 21.9174 197.697 21.9174 197.697C21.9174 197.697 29.7218 201.113 36.0596 200.624C39.8308 200.337 43.5778 199.791 47.2744 198.991L56.2117 196.88L55.4813 193.568Z" fill="white" stroke="#263238" stroke-linecap="round" stroke-linejoin="round"/>
<path d="M46.2967 199.325L46.6245 181.605" stroke="#263238" stroke-linecap="round" stroke-linejoin="round"/>
<path d="M62.3885 114.483V118.704C62.3885 118.704 64.4992 120.332 63.1994 121.471C62.677 121.997 62.073 122.436 61.4108 122.771C61.4108 122.771 60.5999 126.509 58.8113 128.297C57.0227 130.086 56.0507 129.758 53.4512 127.97C50.8516 126.181 49.2241 125.048 49.2241 125.048C49.2241 125.048 50.8459 117.083 51.9846 114.483C53.1234 111.884 56.7006 111.556 58.4892 111.878C60.2778 112.2 62.3885 114.483 62.3885 114.483Z" fill="white" stroke="#263238" stroke-linecap="round" stroke-linejoin="round"/>
<path d="M60.6114 118.388C60.6114 118.877 60.3929 119.274 60.1283 119.274C59.8637 119.274 59.6452 118.877 59.6452 118.388C59.6452 117.899 59.858 117.497 60.1283 117.497C60.3986 117.497 60.6114 117.899 60.6114 118.388Z" fill="#263238"/>
<path d="M59.0759 116.289C59.0759 116.289 59.9673 114.84 61.1751 116.047" stroke="#263238" stroke-linecap="round" stroke-linejoin="round"/>
<path d="M57.8681 123.075C58.4023 123.619 59.1251 123.936 59.8868 123.961" stroke="#263238" stroke-linecap="round" stroke-linejoin="round"/>
<path d="M55.1363 113.114C55.1363 113.114 51.7201 121.304 51.8926 125.232C52.0651 129.16 56.4935 140.427 54.6244 144.182C52.7553 147.938 48.81 150.681 45.9344 146.23C43.0588 141.778 42.0063 140.427 40.1314 143.153C38.2565 145.879 36.0366 150.836 31.7692 150.836C27.5018 150.836 22.3545 145.206 24.9138 139.23C27.4731 133.255 33.2818 130.696 36.8647 124.893C39.4954 120.769 41.3473 116.198 42.3284 111.406L55.4698 111.918L55.1363 113.114Z" fill="#263238" stroke="#263238" stroke-linecap="round" stroke-linejoin="round"/>
<path d="M41.9833 113.966H62.469C62.469 113.966 62.469 105.258 60.7437 103.895C59.0183 102.532 45.5548 102.871 44.0192 103.895C42.4837 104.919 41.3334 112.942 41.9833 113.966Z" fill="#00AA13" stroke="#263238" stroke-linecap="round" stroke-linejoin="round"/>
<path d="M55.9242 113.873C55.9242 113.873 60.7034 115.748 64.9708 115.748C69.2382 115.748 71.4581 113.873 71.4581 113.873H55.9242Z" fill="#00AA13" stroke="#263238" stroke-linecap="round" stroke-linejoin="round"/>
<path d="M89.5284 152.982C89.5284 152.982 91.317 152.659 91.317 153.959C91.317 155.259 89.2063 155.109 87.4177 154.448C85.6291 153.787 88.0676 153.327 89.5284 152.982Z" fill="#B5B5B5" stroke="#263238" stroke-linecap="round" stroke-linejoin="round"/>
<path d="M89.8562 154.626C89.8562 154.626 91.6448 154.299 91.6448 155.604C91.6448 156.91 89.5284 156.754 87.7455 156.087C85.9626 155.42 88.3954 154.954 89.8562 154.626Z" fill="#B5B5B5" stroke="#263238" stroke-linecap="round" stroke-linejoin="round"/>
<path d="M90.184 156.254C90.184 156.254 91.9669 155.926 91.9669 157.226C91.9669 158.526 89.8562 158.376 88.0676 157.715C86.2789 157.053 88.7174 156.576 90.184 156.254Z" fill="#B5B5B5" stroke="#263238" stroke-linecap="round" stroke-linejoin="round"/>
<path d="M89.8619 157.916C89.8619 157.916 91.6506 157.588 91.6506 158.888C91.6506 160.188 89.5341 160.038 87.7513 159.377C85.9684 158.715 88.4011 158.238 89.8619 157.916Z" fill="#B5B5B5" stroke="#263238" stroke-linecap="round" stroke-linejoin="round"/>
<path d="M82.0518 154.626C82.0518 154.626 71.9758 176.728 71.9758 178.206C71.9758 179.684 71.9758 183.566 72.9535 185.844C73.9312 188.121 79.7801 192.343 82.3797 192.831C84.9792 193.32 96.033 190.721 97.3327 190.393C98.6325 190.065 102.049 180.967 101.882 179.178C101.715 177.39 97.4938 170.551 96.8439 169.43C96.194 168.308 90.8339 160.976 90.184 159.653C89.5341 158.33 87.5787 154.943 87.5787 154.943L82.0518 154.626Z" fill="white" stroke="#263238" stroke-linecap="round" stroke-linejoin="round"/>
<path d="M83.8404 158.526L82.5406 168.119" stroke="#263238" stroke-linecap="round" stroke-linejoin="round"/>
<path d="M86.1179 157.387V170.068" stroke="#263238" stroke-linecap="round" stroke-linejoin="round"/>
<path d="M87.7455 156.087L92.2947 170.39" stroke="#263238" stroke-linecap="round" stroke-linejoin="round"/>
<path d="M55.7114 155.926C55.7114 155.926 47.7518 135.797 45.6353 134.796C43.5189 133.796 37.1983 134.003 37.8482 141.479C38.4981 148.956 51.0127 164.559 52.6345 164.72C54.2563 164.881 79.7801 156.432 79.7801 156.432C79.7801 156.432 88.4069 157.582 89.0453 156.593C89.6836 155.604 89.8562 152.044 89.8562 152.044C89.8562 152.044 91.0064 149.606 89.8562 148.795C88.7059 147.984 83.5299 148.467 82.7075 148.467C81.885 148.467 77.9915 152.366 77.9915 152.366L55.7114 155.926Z" fill="white" stroke="#263238" stroke-linecap="round" stroke-linejoin="round"/>
<path d="M89.0683 156.576C89.7181 155.604 89.8792 152.027 89.8792 152.027C89.8792 152.027 91.0294 149.588 89.8792 148.777C88.7289 147.967 83.5529 148.45 82.7304 148.45C81.908 148.45 78.0145 152.349 78.0145 152.349L73.7874 153.028L74.5062 158.152C77.6291 157.134 79.8031 156.427 79.8031 156.427C79.8031 156.427 88.3954 157.583 89.0683 156.576Z" fill="#00AA13" stroke="#263238" stroke-linecap="round" stroke-linejoin="round"/>
<path d="M91.9669 146.5L101.232 151.377L99.4434 154.626L91.9669 146.5Z" fill="white" stroke="#263238" stroke-linecap="round" stroke-linejoin="round"/>
<path d="M84.3293 148.128L85.6291 144.711C85.6291 144.711 86.6068 144.222 90.184 145.2C93.7612 146.178 100.743 156.087 100.743 156.087C100.743 156.087 95.7051 159.664 94.8942 159.825C94.0833 159.986 91.1559 151.199 90.8339 150.399C90.5761 149.82 90.2477 149.276 89.8562 148.777L84.3293 148.128Z" fill="white" stroke="#263238" stroke-linecap="round" stroke-linejoin="round"/>
<path d="M89.8562 148.777L86.9806 146.908" stroke="#263238" stroke-linecap="round" stroke-linejoin="round"/>
<path d="M109.031 184.682H68.0361V248.923H109.031V184.682Z" fill="#00AA13" stroke="#263238" stroke-linecap="round" stroke-linejoin="round"/>
<path d="M108.933 206.467H68.1339C67.8441 206.467 67.5662 206.352 67.3613 206.147C67.1563 205.943 67.0412 205.665 67.0412 205.375C67.0412 205.085 67.1563 204.807 67.3613 204.602C67.5662 204.397 67.8441 204.282 68.1339 204.282H108.933C109.223 204.282 109.501 204.397 109.706 204.602C109.91 204.807 110.026 205.085 110.026 205.375C110.026 205.665 109.91 205.943 109.706 206.147C109.501 206.352 109.223 206.467 108.933 206.467Z" fill="#00AA13" stroke="#263238" stroke-linecap="round" stroke-linejoin="round"/>
<path d="M108.933 185.648H68.1339C67.8441 185.648 67.5662 185.533 67.3613 185.328C67.1563 185.123 67.0412 184.845 67.0412 184.555C67.0412 184.266 67.1563 183.988 67.3613 183.783C67.5662 183.578 67.8441 183.463 68.1339 183.463H108.933C109.223 183.463 109.501 183.578 109.706 183.783C109.91 183.988 110.026 184.266 110.026 184.555C110.026 184.845 109.91 185.123 109.706 185.328C109.501 185.533 109.223 185.648 108.933 185.648Z" fill="#00AA13" stroke="#263238" stroke-linecap="round" stroke-linejoin="round"/>
<path d="M108.933 228.23H68.1339C67.8441 228.23 67.5662 228.115 67.3613 227.91C67.1563 227.705 67.0412 227.427 67.0412 227.137C67.0412 226.847 67.1563 226.57 67.3613 226.365C67.5662 226.16 67.8441 226.045 68.1339 226.045H108.933C109.223 226.045 109.501 226.16 109.706 226.365C109.91 226.57 110.026 226.847 110.026 227.137C110.026 227.427 109.91 227.705 109.706 227.91C109.501 228.115 109.223 228.23 108.933 228.23Z" fill="#00AA13" stroke="#263238" stroke-linecap="round" stroke-linejoin="round"/>
</svg>
